<?xml version="1.0" standalone="no"?>
<svg version="1.0" xmlns="http://www.w3.org/2000/svg"
 width="512.000000pt" height="512.000000pt" viewBox="0 0 512.000000 512.000000"
 preserveAspectRatio="xMidYMid meet">

<g transform="translate(0.000000,512.000000) scale(0.100000,-0.100000)"
fill="#000000" stroke="none">
<path d="M2420 5114 c-60 -12 -161 -49 -230 -85 -167 -86 -301 -232 -390 -422
-225 -480 -44 -1091 390 -1316 141 -74 195 -86 370 -86 136 0 164 3 225 23
242 81 423 244 535 485 225 480 44 1091 -390 1316 -133 69 -188 83 -345 86
-77 2 -151 1 -165 -1z"/>
<path d="M209 4054 l-154 -154 660 -660 660 -660 -35 -27 c-59 -46 -219 -204
-280 -278 -191 -233 -327 -520 -391 -830 -23 -107 -24 -126 -27 -777 l-3 -668
1668 0 1668 0 -1290 1290 c-1236 1236 -1289 1290 -1270 1305 51 41 207 141
269 172 l69 35 1364 -1364 1363 -1363 0 595 c0 533 -2 607 -19 710 -66 406
-249 765 -537 1054 -281 281 -636 463 -1039 533 -143 24 -522 24 -655 0 -131
-24 -262 -60 -372 -101 l-92 -35 -383 377 c-211 207 -527 517 -702 689 l-318
312 -154 -155z"/>
</g>
</svg>
