<?xml version="1.0" standalone="no"?>

<svg version="1.0" xmlns="http://www.w3.org/2000/svg"
 width="718.000000pt" height="980.000000pt" viewBox="0 0 718.000000 980.000000"
 preserveAspectRatio="xMidYMid meet">

<g transform="translate(0.000000,980.000000) scale(0.100000,-0.100000)"
fill="#000000" stroke="none">
<path d="M3245 9789 c-122 -12 -313 -45 -468 -80 -679 -156 -1280 -496 -1772
-1000 -433 -444 -721 -948 -894 -1563 -87 -308 -111 -523 -111 -976 1 -501 28
-764 126 -1195 286 -1262 1039 -2591 2149 -3795 352 -382 1027 -1010 1239
-1154 73 -49 95 -39 316 145 1321 1101 2444 2603 2948 3944 197 523 321 1042
378 1580 25 226 25 704 0 910 -114 974 -604 1845 -1377 2446 -450 351 -1008
599 -1544 688 -339 56 -723 75 -990 50z m675 -770 c615 -71 1271 -419 1698
-901 403 -456 639 -977 703 -1558 18 -165 16 -516 -5 -673 -43 -333 -122 -596
-267 -887 -201 -403 -522 -780 -884 -1036 -376 -267 -878 -462 -1298 -505
-167 -16 -662 -7 -782 15 -796 146 -1460 580 -1887 1231 -225 343 -400 804
-439 1156 -15 145 -16 608 0 759 30 289 163 690 323 975 190 338 496 680 834
931 153 113 364 233 544 307 218 89 535 172 770 201 64 8 593 -3 690 -15z"/>
<path d="M2878 7830 c-155 -19 -334 -163 -422 -340 -55 -112 -75 -196 -206
-850 -101 -505 -130 -671 -130 -751 0 -72 32 -196 67 -262 34 -62 133 -164
195 -201 104 -61 106 -61 1183 -61 747 0 998 3 1055 13 108 18 186 59 259 138
113 120 157 247 148 419 -13 221 -229 1277 -306 1495 -15 41 -43 100 -64 131
-52 78 -181 198 -249 232 -53 27 -70 30 -220 38 -200 10 -1218 9 -1310 -1z
m1227 -221 c23 -11 30 -21 30 -44 0 -56 -19 -58 -420 -65 -198 -3 -429 -3
-513 0 -147 5 -155 6 -173 29 -22 27 -25 66 -6 78 20 13 262 20 667 19 317 -1
390 -4 415 -17z m140 -358 c197 -8 220 -16 266 -89 54 -86 116 -318 175 -662
34 -202 37 -318 8 -357 -42 -57 -65 -62 -375 -74 -324 -13 -1584 -5 -1717 10
-65 8 -91 16 -117 36 -70 53 -69 126 10 540 52 270 82 379 131 476 48 97 78
110 269 119 194 9 1143 10 1350 1z m-1355 -1313 c53 -27 105 -106 116 -174 12
-81 -46 -193 -119 -231 -38 -19 -146 -22 -199 -4 -68 23 -147 135 -148 209 0
41 43 132 80 167 60 58 190 73 270 33z m1578 6 c98 -41 164 -161 137 -252 -50
-167 -227 -231 -369 -134 -64 44 -76 72 -76 184 l0 98 38 42 c20 22 55 49 77
59 50 23 143 24 193 3z"/>
<path d="M2474 4942 c-377 -441 -378 -442 -367 -453 6 -6 174 -8 429 -7 l419
3 43 126 43 126 526 7 c289 4 528 4 532 1 3 -3 26 -65 51 -138 l45 -132 418 1
c294 0 421 4 429 12 14 14 21 6 -337 426 l-298 349 -234 -5 c-128 -3 -236 -7
-239 -11 -4 -3 12 -59 35 -123 23 -64 39 -119 36 -123 -11 -10 -280 -19 -582
-20 -161 -1 -293 0 -293 2 0 1 18 49 40 107 48 125 50 147 14 160 -14 6 -118
10 -232 10 l-207 0 -271 -318z"/>
</g>
</svg>
