<?xml version="1.0" standalone="no"?>
<svg version="1.0" xmlns="http://www.w3.org/2000/svg"
 width="2048.000000pt" height="2048.000000pt" viewBox="0 0 2048.000000 2048.000000"
 preserveAspectRatio="xMidYMid meet">

<g transform="translate(0.000000,2048.000000) scale(0.100000,-0.100000)"
fill="#000000" stroke="none">
<path d="M10070 18379 c-234 -22 -487 -112 -678 -241 -96 -65 -9233 -7674
-9294 -7740 -57 -62 -88 -136 -95 -233 -6 -81 14 -177 52 -240 13 -22 206
-258 429 -525 275 -328 424 -499 462 -527 130 -98 287 -107 447 -26 27 13 738
599 1580 1302 5154 4298 7254 6048 7265 6055 8 5 170 -124 490 -391 3523
-2939 8312 -6930 8343 -6953 64 -46 132 -65 234 -65 102 1 170 22 244 77 55
40 872 1015 903 1076 19 40 23 66 26 174 3 121 2 130 -24 188 -19 42 -45 77
-89 118 -34 31 -676 568 -1428 1192 l-1367 1135 0 2615 c0 2852 3 2685 -56
2786 -37 63 -125 139 -192 166 l-57 23 -1289 3 c-799 1 -1309 -1 -1342 -7
-142 -27 -252 -124 -302 -269 -15 -42 -17 -175 -22 -1323 l-5 -1277 -1560
1304 c-857 717 -1591 1326 -1630 1353 -295 202 -652 288 -1045 250z"/>
<path d="M6588 12082 c-2005 -1654 -3650 -3016 -3654 -3027 -12 -29 -17 -6061
-5 -6212 15 -195 68 -324 192 -472 102 -121 257 -222 414 -268 57 -17 196 -18
2573 -21 l2512 -2 0 2440 0 2440 1625 0 1625 0 0 -2440 0 -2440 2518 3 c2384
2 2520 3 2576 20 278 85 491 299 578 579 l23 73 3 3125 c1 1719 0 3139 -3
3156 -5 28 -463 409 -3655 3040 -2007 1655 -3655 3010 -3662 3011 -7 1 -1654
-1351 -3660 -3005z"/>
</g>
</svg>
