<?xml version="1.0" standalone="no"?>
<svg version="1.0" xmlns="http://www.w3.org/2000/svg"
 width="980.000000pt" height="908.000000pt" viewBox="0 0 980.000000 908.000000"
 preserveAspectRatio="xMidYMid meet">

<g transform="translate(0.000000,908.000000) scale(0.100000,-0.100000)"
fill="#000000" stroke="none">
<path d="M1020 9054 c-240 -51 -536 -232 -710 -435 -146 -170 -224 -307 -283
-504 l-22 -70 -3 -3435 c-2 -2552 0 -3459 9 -3530 22 -184 80 -337 193 -510
188 -286 483 -481 825 -545 73 -13 347 -15 2335 -15 2444 0 2333 -2 2531 55
175 51 352 157 461 278 106 117 203 293 250 456 57 196 57 192 61 1273 l5 998
-601 0 -601 0 0 -920 0 -920 -2130 0 -2130 0 2 3363 3 3362 2132 3 2133 2 -7
-925 -6 -925 599 2 599 3 3 850 c1 482 -2 902 -7 970 -32 394 -272 750 -662
980 -114 68 -225 111 -344 136 -86 18 -180 19 -2330 18 -1876 0 -2251 -3
-2305 -15z"/>
<path d="M7445 6556 c-66 -30 -109 -104 -119 -204 -3 -26 -10 -200 -16 -387
-13 -383 -16 -403 -82 -459 -50 -43 -158 -74 -295 -84 -54 -4 -840 -3 -1748 1
-1728 9 -1801 8 -1922 -33 -112 -39 -184 -126 -212 -260 -17 -77 -24 -562 -14
-890 l9 -275 31 -66 c38 -81 78 -128 141 -162 116 -63 31 -59 1562 -68 2302
-13 2256 -13 2325 -33 77 -22 119 -55 138 -108 19 -53 40 -476 35 -723 -3
-161 -2 -173 20 -217 44 -89 132 -107 272 -55 181 67 341 203 1410 1197 352
327 437 403 590 526 130 105 162 139 199 213 73 141 15 269 -202 448 -163 134
-408 343 -737 628 -732 633 -1113 949 -1188 987 -73 36 -151 46 -197 24z"/>
</g>
</svg>
