<?xml version="1.0" standalone="no"?>
<svg version="1.0" xmlns="http://www.w3.org/2000/svg"
 width="980.000000pt" height="922.000000pt" viewBox="0 0 980.000000 922.000000"
 preserveAspectRatio="xMidYMid meet">

<g transform="translate(0.000000,922.000000) scale(0.100000,-0.100000)"
fill="#000000" stroke="none">
<path d="M8065 9196 c-335 -56 -603 -191 -838 -424 -289 -284 -447 -657 -447
-1054 0 -190 30 -309 130 -513 74 -154 159 -285 412 -641 473 -666 662 -1004
822 -1472 46 -134 136 -475 136 -515 0 -38 17 -4 40 78 36 127 126 383 184
522 172 408 338 701 721 1273 385 574 490 771 551 1035 26 110 26 342 0 480
-88 471 -390 875 -810 1084 -136 68 -203 92 -356 128 -131 30 -416 41 -545 19z
m430 -721 c525 -144 760 -764 460 -1214 -82 -125 -207 -231 -339 -291 -111
-51 -179 -64 -326 -64 -158 -1 -219 13 -355 79 -201 98 -346 269 -417 495 -20
64 -23 96 -23 220 0 124 3 156 23 220 92 294 317 502 612 566 82 17 282 11
365 -11z"/>
<path d="M2360 8020 c-1024 -80 -1904 -767 -2229 -1740 -88 -264 -124 -486
-125 -780 0 -248 12 -326 90 -559 112 -337 293 -640 832 -1393 562 -785 786
-1142 1036 -1648 260 -527 442 -1048 556 -1595 17 -82 32 -150 34 -152 1 -1
17 52 35 120 119 437 329 980 561 1452 251 507 430 804 1027 1701 414 622 521
795 648 1044 264 523 332 916 245 1425 -176 1028 -945 1842 -1957 2070 -223
50 -531 73 -753 55z m303 -1201 c320 -28 600 -155 829 -377 161 -156 272 -333
343 -546 47 -142 65 -256 65 -422 0 -223 -43 -410 -137 -599 -195 -387 -539
-647 -968 -731 -121 -24 -357 -24 -480 -1 -558 107 -980 526 -1092 1084 -23
119 -23 374 0 495 96 488 449 888 913 1037 134 42 179 50 394 69 8 1 68 -3
133 -9z"/>
<path d="M7035 4373 c-204 -14 -454 -62 -619 -120 -207 -72 -351 -159 -494
-297 -317 -307 -292 -598 76 -907 88 -74 174 -133 577 -397 193 -127 294 -240
340 -381 26 -80 17 -190 -20 -260 -93 -170 -333 -280 -735 -336 -391 -54
-1644 -44 -2510 19 -91 7 -166 11 -168 10 -2 -1 -32 -114 -67 -250 -142 -560
-312 -1122 -411 -1368 -13 -33 -21 -62 -18 -65 11 -12 1776 -6 2044 7 1216 57
1671 138 2207 392 574 273 970 670 1079 1085 23 85 27 121 27 235 0 114 -4
151 -27 235 -66 251 -246 513 -481 702 -187 150 -384 263 -785 452 -396 186
-491 242 -601 351 -90 89 -123 160 -124 260 0 91 20 134 92 201 204 190 705
303 1513 341 256 12 263 13 200 25 -100 18 -370 51 -519 63 -124 9 -458 11
-576 3z"/>
</g>
</svg>
